<svg width="136" height="156" viewBox="0 0 136 156" version="1.1" xmlns="http://www.w3.org/2000/svg" xmlns:xlink="http://www.w3.org/1999/xlink">
<title>Group 3</title>
<desc>Created using Figma</desc>
<g id="Canvas" transform="translate(216 -46)">
<g id="Group 3">
<g id="Group">
<g id="Line">
<use xlink:href="#path0_stroke" transform="matrix(6.12323e-17 1 -1 6.12323e-17 -216 86)" fill="#178ED1"/>
</g>
<g id="Line">
<use xlink:href="#path0_stroke" transform="matrix(6.12323e-17 1 -1 6.12323e-17 -92 86)" fill="#178ED1"/>
</g>
<g id="Line">
<use xlink:href="#path0_stroke" transform="matrix(0.866025 -0.5 0.5 0.866025 -149 201.5)" fill="#178ED1"/>
</g>
<g id="Line">
<use xlink:href="#path0_stroke" transform="matrix(0.866025 0.5 -0.5 0.866025 -216 163)" fill="#178ED1"/>
</g>
<g id="Line">
<use xlink:href="#path0_stroke" transform="matrix(0.866025 0.5 -0.5 0.866025 -153 57)" fill="#178ED1"/>
</g>
<g id="Line">
<use xlink:href="#path0_stroke" transform="matrix(0.866025 -0.5 0.5 0.866025 -209 95.5)" fill="#178ED1"/>
</g>
</g>
<g id="Group 2">
<g id="Polygon">
<use xlink:href="#path1_fill" transform="matrix(-1 -1.22465e-16 1.22465e-16 -1 -98 182)" fill="#4F4F4F"/>
</g>
<g id="Polygon">
<use xlink:href="#path1_fill" transform="matrix(1 5.34378e-24 -5.34378e-24 1 -198 66)" fill="#4F4F4F"/>
</g>
<g id="Rectangle">
<use xlink:href="#path2_fill" transform="translate(-198 96)" fill="#4F4F4F"/>
</g>
<g id="Rectangle 2.2">
<use xlink:href="#path3_fill" transform="matrix(-1 -1.22465e-16 1.22465e-16 -1 -116 156)" fill="#FFFFFF"/>
</g>
<g id="Rectangle 3">
<use xlink:href="#path4_fill" transform="translate(-145 114)" fill="#4F4F4F"/>
</g>
</g>
<g id="Rectangle 2">
<use xlink:href="#path5_fill" transform="translate(-183 92)" fill="#FFFFFF"/>
</g>
<g id="Rectangle 2.1">
<use xlink:href="#path6_fill" transform="matrix(0.34202 0.939693 -0.939693 0.34202 -149 66)" fill="#FFFFFF"/>
</g>
</g>
</g>
<defs>
<path id="path0_stroke" d="M 0 0L 77 0L 77 -12L 0 -12L 0 0Z"/>
<path id="path1_fill" d="M 50 0L 101 30L 0 30L 50 0Z"/>
<path id="path2_fill" d="M 0 0L 101 0L 101 56L 0 56L 0 0Z"/>
<path id="path3_fill" d="M 0 10.5808L 19 0L 19 64L 0 52.4917L 0 10.5808Z"/>
<path id="path4_fill" d="M 0 0L 39 0L 39 19L 0 19L 0 0Z"/>
<path id="path5_fill" d="M 0 10L 19 0L 19 81L 0 69L 0 10Z"/>
<path id="path6_fill" d="M 0 0L 18.7939 6.84039L 28.9439 63.7436L 9.21039 56.5612L 0 0Z"/>
</defs>
</svg>
